# xmcd
#
# Track frame offsets:
#	150
#	29060
#	52480
#	91160
#	104255
#	130242
#	175505
#	210037
#	237215
#
# Disc length: 3570 seconds
# Revision: 0
# Processed by: cddbd v1.5.2PL0 Copyright (c) Steve Scherf et al.
# Submitted via: dBpowerAMP V12.0
#
DISCID=720df009
DTITLE=Rory Gallagher - Live in Europe
DYEAR=1972
DGENRE=Blues
TTITLE0=Messin' with the Kid
TTITLE1=Laundromat
TTITLE2=I Could've Had Religion
TTITLE3=Pistol Slapper Blues
TTITLE4=Going to My Home Town
TTITLE5=In Your Town
TTITLE6=What in the World
TTITLE7=Hoodoo Man
TTITLE8=Bullfrog Blues
EXTD=
EXTT0=
EXTT1=
EXTT2=
EXTT3=
EXTT4=
EXTT5=
EXTT6=
EXTT7=
EXTT8=
PLAYORDER=
